# xmcd
#
# Track frame offsets:
#	150
#	13683
#	40952
#
# Disc length: 728 seconds
#
# Revision: 0
# Processed by: cddbd v1.5.2PL0 Copyright (c) Steve Scherf et al.
# Submitted via: dBpowerAMP V4.0
#
DISCID=1c02d603
DTITLE=Billy Crawford - You Didn't Expect That [CDS]
DYEAR=2003
DGENRE=Pop
TTITLE0=You Didn't Expect That (Saska Remix)
TTITLE1=You Didn't Expect That (Jaimeson Remix)
TTITLE2=You Didn't Expect That (Original Version)
EXTD=
EXTT0=
EXTT1=
EXTT2=
PLAYORDER=
